<svg width="704" height="244" viewBox="0 0 704 244" fill="none" xmlns="http://www.w3.org/2000/svg">
<g clip-path="url(#clip0_90_31)">
<path d="M209.23 188.24C189.73 188.24 170.23 180.82 155.39 165.97C141.01 151.59 133.09 132.47 133.09 112.13C133.09 91.79 141.01 72.67 155.39 58.29C185.08 28.6 233.38 28.6 263.07 58.29L264.5 59.72C272.24 66.78 282.19 70.64 292.73 70.64C303.27 70.64 313.38 66.72 321.15 59.55L322.4 58.29C352.09 28.6 400.39 28.6 430.08 58.29C444.46 72.67 452.38 91.79 452.38 112.13C452.38 132.47 444.46 151.59 430.08 165.97C400.39 195.66 352.08 195.66 322.4 165.97L320.98 164.55C313.24 157.49 303.29 153.62 292.74 153.62C282.19 153.62 272.1 157.54 264.33 164.7L263.07 165.97C248.23 180.81 228.73 188.24 209.23 188.24ZM209.23 70.2C198.49 70.2 187.74 74.29 179.56 82.47C171.64 90.39 167.27 100.93 167.27 112.14C167.27 123.35 171.63 133.88 179.56 141.81C195.51 157.76 221.2 158.16 237.64 143.01L238.89 141.75C253.27 127.37 272.39 119.45 292.73 119.45C313.07 119.45 332.19 127.37 346.57 141.75L347.98 143.16C364.42 158.15 390 157.71 405.9 141.81C413.83 133.89 418.19 123.35 418.19 112.14C418.19 100.93 413.83 90.4 405.9 82.47C389.95 66.52 364.25 66.12 347.81 81.27L346.57 82.52C332.19 96.9 313.07 104.82 292.73 104.82C272.39 104.82 253.27 96.9 238.89 82.52L237.47 81.1C229.49 73.83 219.36 70.19 209.23 70.19V70.2Z" fill="#3D9EB9"/>
<path d="M-9.76585e-06 165.72L16.51 139C27.02 148.91 48.63 158.81 66.65 158.81C83.16 158.81 90.97 152.2 90.97 143.2C90.97 119.18 4.80999 138.7 4.80999 81.65C4.80999 57.33 26.12 36.02 64.25 36.02C88.87 36.02 108.38 44.43 122.79 55.83L107.48 81.95C98.77 72.64 82.26 65.14 64.55 65.14C50.74 65.14 41.73 71.45 41.73 79.55C41.73 101.17 127.59 83.15 127.59 141.7C127.59 168.12 105.07 188.24 64.84 188.24C39.62 188.24 15.3 179.83 -0.0100098 165.72H-9.76585e-06Z" fill="#3D9EB9"/>
<path d="M662.38 39.63L624.55 140.5L586.72 39.63H517.31V0H478.88V39.63H454.86V72.95H478.88V148.61C478.88 174.43 493.29 188.24 520.01 188.24C535.92 188.24 546.13 184.04 551.83 178.93L543.72 150.11C541.62 152.21 536.21 154.31 530.51 154.31C522.1 154.31 517.3 147.4 517.3 138.4V72.96H559.21L604.72 186.74L599.31 199.05C595.71 206.86 589.1 209.56 579.2 209.56C575.6 209.56 570.49 208.66 567.19 207.16L561.49 241.39C566.29 242.59 575.9 243.49 580.4 243.49C605.32 242.89 624.53 235.68 635.34 208.37L703.49 39.65H662.36L662.38 39.63Z" fill="#3D9EB9"/>
</g>
<defs>
<clipPath id="clip0_90_31">
<rect width="703.51" height="243.48" fill="white"/>
</clipPath>
</defs>
</svg>
