<svg width="104" height="46" xmlns="http://www.w3.org/2000/svg" fill="none">
 <defs>
  <clipPath id="clip0_781_2772">
   <rect id="svg_1" x="0.96582" y="0.5" fill="white" height="45" width="156.932"/>
  </clipPath>
 </defs>
 <g>
  <title>Layer 1</title>
  <g stroke="null" id="svg_2" clip-path="url(#clip0_781_2772)">
   <path stroke="null" id="svg_5" fill="#009DFE" d="m18.9104,15.9298c0,0.34 -0.0425,0.7226 -0.1488,1.0307l-4.8241,14.2491c-0.6482,1.8808 -2.1039,2.5289 -3.634,2.5289c-1.5301,0 -3.0283,-0.6481 -3.6765,-2.5289l-4.7922,-14.2491c-0.1169,-0.3081 -0.1488,-0.6907 -0.1488,-1.0307c0,-1.3388 0.882,-2.6777 2.7627,-2.6777c1.307,0 2.2952,0.6907 2.6458,1.8808l3.2196,10.4982l3.2196,-10.4982c0.3401,-1.1901 1.3389,-1.8808 2.6458,-1.8808c1.8489,-0.0106 2.7309,1.3283 2.7309,2.6777z"/>
   <path stroke="null" id="svg_6" fill="#009DFE" d="m36.1453,20.0632l0,10.0307c0,1.1157 -0.6482,2.2633 -1.9552,2.7202c-1.4982,0.5313 -3.8677,0.9244 -6.2798,0.9244c-5.2066,0 -8.3837,-2.1464 -8.3837,-6.4392c0,-4.6753 3.55959,-6.3542 8.3093,-6.3542l3.1028,0l0,-0.765c0,-1.0307 -0.7332,-2.1039 -2.7202,-2.1039c-1.222,0 -2.22079,0.2338 -2.95399,0.4994c-0.8394,0.3081 -1.53011,0.6163 -2.2952,0.6163c-1.2219,0 -2.412,-1.0307 -2.412,-2.4864c0,-0.8395 0.425,-1.5726 1.1901,-2.0295c0.765,-0.457 3.1771,-1.4133 6.3223,-1.4133c4.4416,-0.0212 8.0756,2.1677 8.0756,6.8005zm-8.38371,5.3979c-2.1783,0 -3.0284,0.5313 -3.0284,1.7639c0,1.19 0.8395,1.6894 3.0284,1.6894c1.14751,0 2.2207,-0.0743 3.1771,-0.3081l0,-3.1452l-3.1771,0z"/>
   <path stroke="null" id="svg_7" fill="#009DFE" d="m48.705,13.5177c1.41299,0.3082 2.178,1.2645 2.178,2.6458c0,1.4558 -1.11501,2.529 -2.677,2.529c-0.765,0 -1.499,-0.2338 -2.179,-0.2338c-0.882,0 -1.339,0.5738 -1.339,1.3813l0,11.1464c0,1.647 -1.18961,2.7627 -2.79411,2.7627c-1.6045,0 -2.79449,-1.1157 -2.79449,-2.7627l0,-11.3057c0,-3.9847 2.4545,-6.4392 6.54559,-6.4392c1.07301,0 1.98701,0.0425 3.06001,0.2762z"/>
   <path stroke="null" id="svg_8" fill="#009DFE" d="m69.393,21.6358l0,3.7509c0,5.4404 -3.145,8.3518 -7.92699,8.3518c-0.998,0 -2.486,-0.2338 -3.527,-0.6482l0,6.0567c0,1.647 -1.19,2.7627 -2.79501,2.7627c-1.604,0 -2.794,-1.1157 -2.794,-2.7627l0,-21.8465c0,-1.3814 0.924,-2.6033 2.263,-3.0283c1.987,-0.6482 4.101,-1.0307 6.248,-1.0307c5.387,0 8.532,2.7626 8.532,8.3943zm-11.45399,-2.954l0,9.1169c0.882,0.4994 1.764,0.8395 2.911,0.8395c2.072,0 2.954,-0.9564 2.954,-2.9859l0,-4.3247c0,-1.987 -0.999,-2.9858 -2.954,-2.9858c-0.999,0 -1.997,0.1169 -2.911,0.34z"/>
   <path stroke="null" id="svg_9" fill="#009DFE" d="m88.116,21.5508l0,1.1901c0,1.4132 -1.073,2.8689 -3.103,2.8689l-8.30901,0c0,1.3814 0.49901,3.294 3.10301,3.294c1.689,0 2.71999,-0.3081 3.40999,-0.5313c0.765,-0.2656 1.222,-0.425 1.722,-0.425c1.38101,0 2.48601,1.1157 2.48601,2.4545c0,0.9245 -0.382,1.6895 -1.30701,2.1464c-1.76399,0.882 -5.058,1.1901 -6.32199,1.1901c-5.39801,0 -8.30901,-3.5596 -8.30901,-8.3093l0,-3.8678c0,-4.9409 3.177,-8.3093 8.30901,-8.3093c5.09999,-0.0106 8.31999,3.3577 8.31999,8.2987zm-11.412,-0.2975l6.205,0c-0.11699,-1.987 -0.882,-3.1771 -3.10199,-3.1771c-2.29601,-0.0106 -3.07101,1.2219 -3.10301,3.1771z"/>
   <path stroke="null" id="svg_10" fill="#009DFE" d="m96.23399,8.87426l0,4.74974l2.869,0c1.79601,0 2.79401,1.1157 2.79401,2.6458c0,1.5301 -0.998,2.6458 -2.79401,2.6458l-2.869,0l0,8.2349c0,0.9989 0.425,1.4133 1.11601,1.4133c0.83899,0 1.14699,-0.1913 1.91199,-0.1913c1.45601,0 2.64601,0.8076 2.64601,2.5289c0,1.4132 -0.99901,2.3377 -2.338,2.6033c-0.76501,0.1488 -1.53001,0.2338 -2.412,0.2338c-3.60201,0 -6.513,-2.3377 -6.513,-6.7048l0,-18.15944c0,-1.64699 1.19,-2.76269 2.79399,-2.76269c1.60501,0.01063 2.795,1.1157 2.795,2.76269z"/>
  </g>
 </g>
</svg>