<?xml version="1.0" encoding="UTF-8"?>
<svg id="Layer_1" data-name="Layer 1" xmlns="http://www.w3.org/2000/svg" viewBox="0 0 1652.03 204.34">
  <defs>
    <style>
      .cls-1 {
        fill: #2668fe;
      }

      .cls-2 {
        fill: #404bf8;
      }

      .cls-3 {
        fill: #6720ef;
      }

      .cls-4 {
        fill: #6c19ee;
      }

      .cls-5 {
        fill: #3953fa;
      }

      .cls-6 {
        fill: #6027f1;
      }

      .cls-7 {
        fill: #5335f4;
      }

      .cls-8 {
        fill: #335afb;
      }

      .cls-9 {
        fill: #2c61fd;
      }

      .cls-10 {
        fill: #5a2ef2;
      }

      .cls-11 {
        fill: #4c3cf5;
      }

      .cls-12 {
        fill: #4644f7;
      }
    </style>
  </defs>
  <path class="cls-7" d="M558.05,132.66c0,18.58,.04,37.16,0,55.74-.03,11.94-4.12,15.9-16.4,15.91-17.75,.03-35.5,.04-53.25,0-36.85-.07-62.35-24.22-63.39-60.89-.66-23.15-.26-46.34-.16-69.51,.03-7.71,5.95-13.47,13.18-13.45,7.09,.02,13.08,5.93,13.14,13.56,.15,20.55,.1,41.09,.05,61.64-.02,5.71,.41,11.38,1.84,16.89,5.37,20.62,26.4,31.74,49.48,26.49,16.03-3.65,29.83-15.1,29.18-36.33-.7-22.49-.25-45.02-.11-67.54,.07-11.23,8.23-17.17,18.33-13.69,6.48,2.23,8.13,7.35,8.13,13.48-.01,19.24,0,38.47,0,57.71Z"/>
  <path class="cls-12" d="M766.55,130.4c0-19.24-.09-38.48,.04-57.72,.06-8.29,4.18-12.84,12.42-12.91,20.59-.16,41.2-.09,61.79,.3,32.78,.62,57.09,23.62,58.64,59.92,.99,23.14,.37,46.35,.26,69.52-.04,7.93-5.73,13.37-13.21,13.4-8.02,.04-13.06-5.14-13.1-13.91-.1-20.12-.08-40.23-.01-60.35,.02-5.72-.44-11.4-1.84-16.9-5.98-23.5-28.86-32.27-51.64-26.61-18.63,4.62-26.85,16.08-26.86,35.14-.02,22.52,.09,45.04-.04,67.56-.07,11.52-7.8,17.42-18.03,14.15-6.51-2.08-8.44-6.94-8.43-13.21,.06-19.46,.02-38.92,.02-58.38Z"/>
  <path class="cls-3" d="M76.87,131.06c0-19.24-.08-38.48,.03-57.72,.05-8.88,4.01-13.5,12.47-13.58,20.37-.2,40.76-.06,61.13,.23,33.48,.47,58.3,23.87,59.48,61.94,.69,22.28,.29,44.6,.17,66.9-.05,8.45-5.62,14.04-13.28,14.08-8.02,.04-13.03-5.09-13.08-13.91-.11-19.9-.08-39.79-.03-59.69,.02-5.71-.38-11.41-1.71-16.92-5.56-23.01-27.17-32.99-51.15-27.42-19.32,4.49-27.48,16.01-27.49,35.94-.01,22.08,.09,44.17-.04,66.25-.07,12.13-7.56,18.12-18.06,14.82-6.53-2.06-8.46-6.97-8.45-13.2,.02-19.24,0-38.48,0-57.72Z"/>
  <path class="cls-1" d="M1600.02,203.54c-21.88-.03-38.75-3.73-53.93-13.62-1.82-1.19-3.58-2.51-5.21-3.96-6.55-5.8-7.56-12.72-2.75-18.21,5.7-6.51,13.84-7.38,20.29-1.37,6.97,6.5,14.98,10.67,24.19,12.37,11.33,2.09,22.81,2.63,33.47-2.62,13.19-6.49,13.66-19.97,1.11-27.65-7.57-4.63-16.18-6.54-24.77-8.28-9.67-1.96-19.17-4.32-28.14-8.63-13.86-6.67-23.35-16.58-23.25-32.72,.11-16.61,9.48-27.58,24.34-33.29,23.74-9.12,47.17-8.13,69.43,5.08,5.11,3.03,9.63,6.93,12.53,12.26,4.23,7.77-.29,15.3-9.15,15.51-4.83,.11-9.05-1.36-12.66-4.54-12.61-11.1-27.51-12.5-43.21-9.88-4.77,.8-9.24,2.85-12.63,6.54-5.96,6.49-3.68,16.26,4.95,20.87,8.02,4.28,16.96,5.66,25.64,7.84,11.24,2.82,22.61,5.25,32.81,11.14,24.74,14.27,25.33,47.96,1.16,63.37-11.7,7.46-24.56,10.04-34.23,9.78Z"/>
  <path class="cls-2" d="M1008.13,203.41c-40.4,.64-70.91-28.99-71.67-69.36-.47-24.91,7.52-45.81,27.95-61.16,26.15-19.65,67.2-16.67,89.81,6.57,7.38,7.59,7.94,12.62,2.03,18.47-5.03,4.98-12.09,4.48-18.41-2.06-11.74-12.15-26.22-14.38-41.78-11.41-18.64,3.55-30.51,17.87-33.86,39.43-4.08,26.21,9.98,49.17,34.34,54.82,14.07,3.26,27.91,2.34,39.96-7.12,3.2-2.51,6.89-4.12,10.94-3.69,5.08,.54,8.23,3.96,9.9,8.52,1.53,4.2-.26,7.54-3.4,10.5-11.16,10.53-26.71,16.19-45.82,16.5Z"/>
  <path class="cls-5" d="M1093.1,131.45c-.55-64.02,63.68-85.23,102.43-63.43,6.35,3.57,12.07,7.91,16.96,13.33,5.58,6.19,5.65,11.16,.2,16.58-4.42,4.39-11.47,4.55-16.5-.26-5.93-5.66-12-10.64-20.25-12.74-29.46-7.47-55.15,10.67-57.59,40.88-2.21,27.36,10.99,47.78,35.24,53.06,14.1,3.07,27.89,1.89,39.91-7.65,3.67-2.91,8.03-4.56,12.89-2.71,8.97,3.42,10.62,12.93,2.99,19.15-23.3,18.98-49.4,20.7-75.95,9.27-24.96-10.75-38.23-31.04-40.29-58.28-.18-2.39-.02-4.81-.02-7.21Z"/>
  <path class="cls-6" d="M256.49,122.22c0-20.33-.18-40.66,.05-60.99,.29-24.59,9.72-44.11,32.58-55.56C297.07,1.69,305.7,0,314.56,.09c8.25,.09,13.87,5.04,14.04,11.77,.16,6.42-4.98,11.65-13.03,11.93-20.82,.71-33.26,15.47-32.67,37.85,.09,3.39,1.15,4.64,4.56,4.59,7.67-.12,15.35-.19,23,.17,7.37,.35,11.35,4.43,11.41,10.89,.05,5.83-4.11,10.25-11.02,10.7-7.2,.47-14.47,.52-21.68,.19-4.86-.22-6.36,1.23-6.32,6.22,.23,31.26,.16,62.52,.08,93.78-.03,9.7-4.93,14.47-13.99,14.15-7.94-.28-12.4-5.35-12.43-14.52-.07-21.86-.02-43.72-.02-65.58Z"/>
  <path class="cls-10" d="M344.37,86.97c0-24.48-.09-48.96,.04-73.44,.06-10.71,9.84-16.66,19.16-11.84,5.64,2.91,6.79,8.21,6.8,13.91,.04,15.95,.01,31.91,.01,47.86,0,29.07-.02,58.14,.02,87.21,0,3.71,0,7.46,.47,11.13,1.27,10.02,6.6,14.78,16.36,14.96,9.01,.17,13.33,3.67,13.95,11.32,.61,7.5-3.96,12.54-12.58,13.87-19.01,2.92-34.91-7.55-41.38-27.43-1.83-5.62-2.83-11.43-2.82-17.39,.04-23.39,.02-46.77,.02-70.16-.02,0-.04,0-.06,0Z"/>
  <path class="cls-4" d="M.01,100.84c0-28.42-.04-56.85,.02-85.27C.05,6.73,4.57,1.1,12.05,.12c6.67-.87,13.12,3.56,14.72,10.32,.45,1.88,.47,3.9,.47,5.85,.02,56.85,.04,113.7,0,170.54,0,10.83-6.93,17.34-16.22,15.49C3.8,200.89,.04,195.69,.03,186.77c-.04-28.64-.02-57.29-.01-85.93Z"/>
  <path class="cls-9" d="M1444.7,77.57c10.64-10.36,22.61-16.71,36.87-18.04,9.69-.9,19.29-.55,28.09,4.33,5.2,2.88,8.64,6.91,6.71,13.34-1.73,5.76-6.16,7.8-13.64,6.88-11.74-1.44-23.4-2.66-35.14,.9-15.38,4.66-23.45,14.64-23.49,30.6-.07,23.82,.06,47.64-.06,71.47-.05,11.57-5.22,16.66-15.19,15.5-7.07-.82-10.59-4.38-10.7-11.63-.2-12.89-.1-25.79-.1-38.68,0-25.79-.04-51.58,.02-77.37,.03-10.17,4.86-14.57,14.64-13.71,6.3,.55,10.12,3.64,10.87,10.12,.22,1.87,.65,3.72,1.11,6.31Z"/>
  <path class="cls-8" d="M1324.71,140.99c-15.13,0-30.26,.23-45.37-.12-5.57-.13-6.05,1.59-4.72,6.39,5.04,18.17,22.43,32.03,41.83,33.67,13.46,1.13,25.55-1.81,36.76-9.25,5.99-3.98,12.56-3.64,17.06,.21,5.52,4.73,5.78,11.48,.14,15.73-40.76,30.71-108.64,17.38-120.02-40.9-7.4-37.94,13.09-74.15,47.83-84,46.53-13.2,86.55,17.43,85.79,65.65-.13,8.48-4.26,12.54-13.27,12.6-15.34,.11-30.69,.03-46.03,.03Zm32.18-20.64c3.62,0,2.93-1.84,2.52-4.23-4.13-23.71-23.72-37.17-48.77-33.4-20.08,3.02-34.72,17.96-36.42,37.6,27.58,0,55.12-.03,82.67,.03Z"/>
  <path class="cls-11" d="M673.65,140.76c-15.57,0-31.13,.11-46.7-.07-4.19-.05-5.27,.99-4.22,5.28,4.59,18.77,22.23,33.27,42.16,34.94,13.2,1.1,25.25-1.42,36.15-8.99,3.59-2.49,7.53-3.53,11.83-2.78,4.71,.82,7.9,3.56,9.38,8.13,1.28,3.95,.39,7.46-2.9,9.99-36.27,28-98.59,21.08-116.85-28.11-14.63-39.42,2.25-85.63,45.56-96.64,47.9-12.18,83.89,17.29,84.47,65.96,.09,7.97-4.15,12.17-12.18,12.24-15.57,.14-31.13,.04-46.7,.04Zm30.01-20.38c3.63,.05,5.15-.58,4.16-4.67-2.6-10.68-6.83-20.25-16.41-26.57-25.44-16.81-60.4-3.4-68.27,25.93-1.31,4.88,.22,5.38,4.41,5.32,12.68-.19,25.37-.07,38.06-.07,12.69,0,25.37-.1,38.06,.07Z"/>
</svg>